HIERARCHY
ROOT Hips
{
	OFFSET 0.000000 0.000000 0.000000
	CHANNELS 6 Xposition Yposition Zposition Zrotation Yrotation Xrotation 
	JOINT LHipJoint
	{
		OFFSET 0.000000 0.000000 0.000000
		CHANNELS 3 Zrotation Yrotation Xrotation
		JOINT LeftUpLeg
		{
			OFFSET 1.363060 -1.794630 0.839290
			CHANNELS 3 Zrotation Yrotation Xrotation
			JOINT LeftLeg
			{
				OFFSET 2.448110 -6.726130 0.000000
				CHANNELS 3 Zrotation Yrotation Xrotation
				JOINT LeftFoot
				{
					OFFSET 2.562200 -7.039590 0.000000
					CHANNELS 3 Zrotation Yrotation Xrotation
					JOINT LeftToeBase
					{
						OFFSET 0.157640 -0.433110 2.322550
						CHANNELS 3 Zrotation Yrotation Xrotation
						End Site
						{
							OFFSET 0.000000 0.000000 0.000000
						}
					}
				}
			}
		}
	}
	JOINT RHipJoint
	{
		OFFSET 0.000000 0.000000 0.000000
		CHANNELS 3 Zrotation Yrotation Xrotation
		JOINT RightUpLeg
		{
			OFFSET -1.305520 -1.794630 0.839290
			CHANNELS 3 Zrotation Yrotation Xrotation
			JOINT RightLeg
			{
				OFFSET -2.542530 -6.985550 0.000000
				CHANNELS 3 Zrotation Yrotation Xrotation
				JOINT RightFoot
				{
					OFFSET -2.568260 -7.056230 0.000000
					CHANNELS 3 Zrotation Yrotation Xrotation
					JOINT RightToeBase
					{
						OFFSET -0.164730 -0.452590 2.363150
						CHANNELS 3 Zrotation Yrotation Xrotation
						End Site
						{
							OFFSET 0.000000 0.000000 0.000000
						}
					}
				}
			}
		}
	}
}
MOTION
Frames: 19
Frame Time: 0.008333
-10.357655 16.514824 -1.141629 -15.173479 82.160029 3.902991 -9.255355 -0.516102 2.142666 -7.150546 -3.489428 -51.063215 -1.352477 1.344703 28.069081 1.269398 6.583541 2.860357 1.640600 -0.000000 -29.086300 10.143827 -2.456233 -2.440629 3.018549 -5.744669 -0.191664 1.765907 -1.676492 24.412021 1.066348 11.697545 4.318940 1.946400 -0.000000 -90.463000
-10.141539 16.522256 -1.149955 -11.309256 82.029723 7.539682 -9.343474 -0.520880 2.007832 -7.754947 -3.404762 -50.686665 -1.336984 1.449051 29.662207 1.318334 6.792872 1.917847 1.550099 -0.000000 -27.848500 10.298687 -2.532875 -2.524358 1.938136 -6.521442 -1.432686 1.449349 -1.993883 27.475039 1.007436 12.437222 6.898855 2.630200 -0.000000 -92.483200
-9.928314 16.532613 -1.158940 -7.836818 81.920139 10.800791 -9.407493 -0.527806 1.864906 -8.405032 -3.271908 -50.219731 -1.344317 1.523004 31.053017 1.363752 6.975298 0.770983 1.424900 -0.000000 -27.016900 10.474489 -2.591217 -2.595465 0.917309 -7.311176 -2.803076 1.114232 -2.285108 30.594696 0.879207 12.877572 9.750227 3.388900 0.000001 -93.798000
-9.718004 16.545711 -1.168351 -4.637501 81.832758 13.807897 -9.445800 -0.531558 1.721291 -9.093421 -3.118334 -49.648606 -1.371232 1.565194 32.210418 1.410689 7.153656 -0.521691 1.273800 0.000000 -26.557600 10.666117 -2.619223 -2.654841 -0.040903 -8.097863 -4.281743 0.776144 -2.543737 33.739757 0.683357 12.951693 12.795628 4.146199 0.000000 -94.137200
-9.510445 16.561454 -1.179035 -1.937718 81.750724 16.338723 -9.459526 -0.523908 1.584998 -9.767450 -2.942337 -48.984471 -1.412243 1.579763 33.131237 1.460733 7.325302 -1.899276 1.101000 0.000000 -26.416200 10.862133 -2.606135 -2.700167 -0.878486 -8.833250 -5.833859 0.451480 -2.762674 36.868409 0.428050 12.576503 15.920875 4.782201 0.000000 -93.250300
-9.305526 16.579951 -1.191217 0.279997 81.671840 18.409279 -9.454734 -0.502322 1.461969 -10.403481 -2.761464 -48.223717 -1.462596 1.569191 33.806917 1.515097 7.496919 -3.290676 0.915100 -0.000000 -26.519100 11.051420 -2.548079 -2.735402 -1.582459 -9.504632 -7.433891 0.157049 -2.943167 39.952892 0.127895 11.716079 18.968717 5.166300 0.000000 -91.042100
-9.103179 16.601417 -1.204591 2.172140 81.602641 20.171196 -9.435827 -0.468249 1.355269 -10.999734 -2.604512 -47.352851 -1.517983 1.533892 34.226223 1.574269 7.681180 -4.623411 0.726700 0.000000 -26.780000 11.228394 -2.448522 -2.767138 -2.170241 -10.118707 -9.061191 -0.093887 -3.094531 42.970140 -0.198802 10.374880 21.754206 5.189600 0.000000 -87.671800
-8.903243 16.626155 -1.219622 3.662982 81.537194 21.546668 -9.410837 -0.421283 1.268030 -11.525013 -2.475705 -46.381890 -1.573348 1.479117 34.402589 1.635813 7.873408 -5.841170 0.544100 -0.000000 -27.109899 11.383336 -2.314405 -2.799244 -2.620352 -10.661502 -10.694193 -0.299423 -3.225207 45.889820 -0.532776 8.576538 24.100108 4.787599 -0.000000 -83.558401
-8.705602 16.654536 -1.236334 4.780751 81.475720 22.561420 -9.386299 -0.363635 1.201081 -11.966691 -2.384368 -45.317811 -1.624835 1.408758 34.349320 1.697169 8.073723 -6.898799 0.375800 0.000001 -27.427400 11.511392 -2.156485 -2.835490 -2.932091 -11.128239 -12.319529 -0.465375 -3.345869 48.686831 -0.856509 6.406287 25.861491 3.978500 0.000000 -79.234000
-8.510179 16.686885 -1.254518 5.576160 81.420007 23.263847 -9.366729 -0.298148 1.153221 -12.320845 -2.336803 -44.167691 -1.669772 1.326214 34.082490 1.755767 8.282430 -7.767103 0.229400 0.000000 -27.671500 11.611351 -1.986083 -2.878089 -3.110956 -11.514279 -13.927910 -0.602651 -3.465575 51.339823 -1.155570 4.003411 26.947232 2.861800 0.000000 -75.162701
-8.316943 16.723393 -1.274095 6.027444 81.369904 23.631831 -9.357674 -0.227129 1.122793 -12.577685 -2.326849 -42.950316 -1.706347 1.236282 33.629514 1.808741 8.493136 -8.437692 0.109200 -0.000000 -27.808000 11.681221 -1.812961 -2.926917 -3.150671 -11.810507 -15.515101 -0.724000 -3.588199 53.831828 -1.418486 1.538840 27.324711 1.590500 -0.000000 -71.624900
-8.125745 16.764100 -1.294790 6.143333 81.327754 23.673802 -9.362187 -0.152842 1.106605 -12.737523 -2.345950 -41.681637 -1.734258 1.142536 33.016785 1.853901 8.698931 -8.918325 0.016900 0.000000 -27.829800 11.721935 -1.644891 -2.980808 -3.052597 -12.013556 -17.078959 -0.839012 -3.714495 56.147606 -1.636510 -0.805458 27.017643 0.335700 -0.000000 -68.731700
-7.936496 16.808780 -1.316351 5.915722 81.296473 23.381653 -9.382416 -0.076838 1.101156 -12.802125 -2.379430 -40.380532 -1.754206 1.048335 32.273924 1.889607 8.889892 -9.231770 -0.048800 -0.000000 -27.751500 11.734846 -1.487287 -3.037199 -2.816184 -12.122669 -18.617980 -0.952844 -3.841612 58.271214 -1.803138 -2.869397 26.094611 -0.753500 -0.000000 -66.456500
-7.749109 16.857052 -1.338268 5.374102 81.280199 22.783324 -9.417346 -0.000173 1.101669 -12.782952 -2.413151 -39.057520 -1.767993 0.955408 31.424607 1.915157 9.057664 -9.408741 -0.091300 0.000000 -27.601100 11.723900 -1.343114 -3.093140 -2.452410 -12.142362 -20.126276 -1.065116 -3.965483 60.182703 -1.914158 -4.531709 24.661948 -1.574800 0.000000 -64.733200
-7.563426 16.908273 -1.360088 4.544401 81.282840 21.902646 -9.464742 0.076698 1.103464 -12.693481 -2.432262 -37.720525 -1.777897 0.864790 30.489643 1.930299 9.193233 -9.484251 -0.115800 0.000000 -27.412401 11.693270 -1.213179 -3.145109 -1.974704 -12.078899 -21.595778 -1.171341 -4.081013 61.860191 -1.967916 -5.723073 22.853012 -2.085801 -0.000000 -63.490000
-7.379249 16.961657 -1.381357 3.463463 81.307868 20.774889 -9.521182 0.153726 1.102581 -12.549034 -2.424470 -36.373718 -1.786298 0.776651 29.485340 1.935208 9.289064 -9.492030 -0.128000 0.000000 -27.219100 11.647568 -1.096783 -3.189744 -1.401135 -11.942179 -23.017812 -1.264637 -4.183728 63.284447 -1.965367 -6.423383 20.811461 -2.298200 -0.000000 -62.631300
-7.196344 17.016282 -1.401619 2.179236 81.358734 19.445716 -9.582533 0.230935 1.096000 -12.366988 -2.382744 -35.016548 -1.795278 0.690343 28.422159 1.930421 9.340657 -9.459696 -0.133000 0.000000 -27.051001 11.591387 -0.991816 -3.224430 -0.754556 -11.745634 -24.383989 -1.337710 -4.270370 64.439544 -1.911358 -6.659722 18.688489 -2.265500 0.000000 -62.101801
-7.014458 17.071167 -1.420518 0.746633 81.438949 17.968039 -9.644986 0.308240 1.082163 -12.163047 -2.305052 -33.646633 -1.806251 0.604897 27.307689 1.916420 9.345407 -9.405781 -0.134200 0.000000 -26.932500 11.528655 -0.895414 -3.247507 -0.058754 -11.505700 -25.689810 -1.385062 -4.339292 65.317302 -1.814786 -6.498425 16.626163 -2.063501 0.000000 -61.862500
-6.833239 17.125391 -1.437837 -0.783277 81.551153 16.392573 -9.705521 0.385495 1.061314 -11.950840 -2.195472 -32.263361 -1.819809 0.519413 26.147766 1.893696 9.303081 -9.338593 -0.133200 -0.000001 -26.883400 11.462165 -0.804318 -3.258760 0.664859 -11.240904 -26.936752 -1.404362 -4.390465 65.920248 -1.687702 -6.032114 14.740302 -1.769500 -0.000000 -61.814300
